<svg aria-hidden="true" style="position:absolute;width:0;height:0;overflow:hidden" xmlns="http://www.w3.org/2000/svg"><defs><symbol id="icon-envelope-fill" viewBox="0 0 37 37"><path d="M32.375 4.625H4.625c-1.908 0-3.451 1.561-3.451 3.469l-.017 20.813a3.48 3.48 0 0 0 3.469 3.469h27.75a3.48 3.48 0 0 0 3.469-3.469V8.094a3.48 3.48 0 0 0-3.469-3.469zm-.694 7.371-12.262 7.666a1.753 1.753 0 0 1-1.838 0L5.319 11.996a1.483 1.483 0 0 1-.694-1.249c0-1.162 1.266-1.856 2.255-1.249l11.62 7.267 11.62-7.267c.989-.607 2.255.087 2.255 1.249 0 .503-.26.971-.694 1.249z"/></symbol><symbol id="icon-phone" viewBox="0 0 37 37"><path d="m31.704 24.11-4.858-.555a3.81 3.81 0 0 0-3.137 1.09l-3.519 3.519A28.771 28.771 0 0 1 7.586 15.56l3.538-3.538a3.808 3.808 0 0 0 1.09-3.137l-.555-4.82A3.828 3.828 0 0 0 7.853.68H4.544C2.383.68.585 2.478.719 4.639 1.733 20.973 14.796 34.016 31.11 35.03c2.161.134 3.959-1.664 3.959-3.825v-3.309c.019-1.932-1.435-3.558-3.366-3.787z"/></symbol><symbol id="icon-send" viewBox="0 0 37 37"><path d="M37 0 0 20.813l11.824 4.379L30.062 8.094 16.19 26.809l.011.004-.014-.004V37l6.631-7.736 8.4 3.111L36.999 0z"/></symbol><symbol id="icon-user" viewBox="0 0 37 37"><path d="M18.5 18.5c5.111 0 9.25-4.139 9.25-9.25S23.611 0 18.5 0 9.25 4.139 9.25 9.25s4.139 9.25 9.25 9.25zm0 4.625c-6.174 0-18.5 3.099-18.5 9.25v2.313a2.32 2.32 0 0 0 2.313 2.313h32.375a2.32 2.32 0 0 0 2.313-2.313v-2.313c0-6.151-12.326-9.25-18.5-9.25z"/></symbol><symbol id="icon-X" viewBox="0 0 37 37"><path d="M37 3.726 33.274 0 18.5 14.774 3.726 0 0 3.726 14.774 18.5 0 33.274 3.726 37 18.5 22.226 33.274 37 37 33.274 22.226 18.5 37 3.726z"/></symbol><symbol id="icon-checked" viewBox="0 0 37 37"><path stroke-width=".569" d="m5.57 17.793-.196-.187-2.941 2.786 10.362 9.886L34.566 9.51l-2.922-2.787-18.849 17.964-7.226-6.893z"/></symbol><symbol id="icon-antenna-1" viewBox="0 0 37 37"><path fill="#212121" style="fill:var(--color2, #212121)" d="m33.273 24.598-8.443-8.505.937-4.615c.242.094.499.144.758.146h.006a2.159 2.159 0 1 0-2.008-1.435l-4.96.605-8.091-8.133a.534.534 0 0 0-.377-.16.532.532 0 0 0-.373.155L9.209 4.16a.534.534 0 0 0 0 .754l.814.826a14.943 14.943 0 0 0 2.519 17.663.513.513 0 0 0 .146.098c-.034.18-.051.364-.052.547v6.187h-6.4a2.67 2.67 0 0 0-2.667 2.667v1.067c0 .295.239.533.533.533h24.533a.533.533 0 0 0 .533-.533v-1.067a2.67 2.67 0 0 0-2.667-2.667h-6.4v-2.742a15.09 15.09 0 0 0 3.049.32 14.854 14.854 0 0 0 7.04-1.783l.818.823a.534.534 0 0 0 .377.16.532.532 0 0 0 .373-.155l1.513-1.504a.534.534 0 0 0 0-.754zM25.78 8.733a1.066 1.066 0 1 1 .752 1.822h-.003a1.067 1.067 0 0 1-.747-1.823h-.002zm-1.256 3.505-.598 2.946-1.175-1.182 1.774-1.763zm-.605-.902-1.92 1.909-1.485-1.493 3.405-.415zM26.504 31.3a1.6 1.6 0 0 1 1.6 1.6v.533H4.637V32.9a1.6 1.6 0 0 1 1.6-1.6h20.267zm-7.467-2.133v1.067h-5.333v-1.067h5.333zM13.704 28.1v-4.053c0-1.294 1.196-2.347 2.667-2.347s2.667 1.053 2.667 2.347V28.1h-5.333zm6.4-1.696v-2.357c0-1.882-1.675-3.413-3.733-3.413a3.8 3.8 0 0 0-3.281 1.786 13.87 13.87 0 0 1-2.279-15.887l18.602 18.708a13.818 13.818 0 0 1-9.309 1.163zm11.289-.684L10.336 4.539l.755-.752 7.935 7.98c.004 0 .006.007.01.01l13.115 13.191-.757.752z"/><path fill="#2196f3" style="fill:var(--color3, #2196f3)" d="M16.376 22.767h-.005a1.6 1.6 0 1 0-.004 3.2h.005a1.6 1.6 0 1 0 .004-3.2zm.373 1.978a.534.534 0 0 1-.752-.756.534.534 0 0 1 .373-.155.532.532 0 0 1 .373.911h.005z"/></symbol><symbol id="icon-astronaut-1" viewBox="0 0 37 37"><path fill="#2196f3" style="fill:var(--color3, #2196f3)" d="M34.474 7.024a.534.534 0 0 0-.43-.363l-1.91-.278-.855-1.731c-.179-.365-.777-.365-.956 0l-.855 1.731-1.91.278a.535.535 0 0 0-.296.91l1.383 1.348-.326 1.903c-.034.2.048.402.212.522a.53.53 0 0 0 .562.04l1.709-.899 1.709.899a.536.536 0 0 0 .775-.563l-.326-1.903 1.383-1.348a.536.536 0 0 0 .135-.547zm-2.463 1.327a.534.534 0 0 0-.153.472l.191 1.114-1-.526a.533.533 0 0 0-.498 0l-1.001.526.191-1.114a.534.534 0 0 0-.153-.472l-.81-.789 1.119-.163a.532.532 0 0 0 .402-.292l.5-1.013.5 1.013a.535.535 0 0 0 .402.292l1.119.163-.809.789zM28.634 23.022h-1.067v1.067h1.067v-1.067zM28.634 25.156h-1.067v1.067h1.067v-1.067zM29.7 24.089h-1.067v1.067H29.7v-1.067zM27.567 24.089H26.5v1.067h1.067v-1.067zM24.9 28.889h-1.067v1.067H24.9v-1.067zM24.9 31.022h-1.067v1.067H24.9v-1.067zM25.967 29.956H24.9v1.067h1.067v-1.067zM23.833 29.956h-1.067v1.067h1.067v-1.067zM18.5 26.756h-1.067v1.067H18.5v-1.067zM18.5 28.889h-1.067v1.067H18.5v-1.067zM19.567 27.822H18.5v1.067h1.067v-1.067zM17.433 27.822h-1.067v1.067h1.067v-1.067zM8.367 8.622H7.3v1.067h1.067V8.622zM8.367 10.755H7.3v1.067h1.067v-1.067z"/><path fill="#2196f3" style="fill:var(--color3, #2196f3)" d="M9.433 9.689H8.366v1.067h1.067V9.689zM7.3 9.689H6.233v1.067H7.3V9.689z"/><path fill="#212121" style="fill:var(--color2, #212121)" d="M27.215 16.659a1.775 1.775 0 0 0-1.188-.705 1.778 1.778 0 0 0-1.34.352l-1.252.96-1.898 1.417-1.358-.541c2.421-1.086 4.114-3.508 4.114-6.32 0-3.823-3.123-6.933-6.961-6.933s-6.961 3.11-6.961 6.933a6.86 6.86 0 0 0 1.12 3.758l-2.764-.024h-.005c-.009 0-.015.004-.023.005a.515.515 0 0 0-.155.031l-.038.013c-.006.003-.013.003-.019.006l-3.233 1.596-.001.001-1.893.911a.397.397 0 0 0-.063.035 1.779 1.779 0 0 0-.598 2.295c.22.429.595.745 1.056.889a1.776 1.776 0 0 0 1.378-.128l1.388-.738 2.264-1.169 1.357-.008L4.7 24.711l-.002.001-1.339 1.333c-.316.315-.49.732-.49 1.178s.174.863.49 1.179c.325.323.752.485 1.179.485s.854-.162 1.18-.485l1.314-1.309 1.741-1.3.901.897-1.762 1.754-.002.001-1.339 1.333c-.316.315-.49.732-.49 1.178s.174.863.49 1.179c.325.323.753.485 1.18.485s.855-.162 1.18-.485l3.482-3.467.001-.002 1.01-1-.004-.004c.006-.006.015-.009.022-.015l5.166-5.658 3.471.494a.52.52 0 0 0 .262-.033c.018-.006.033-.015.05-.023.019-.01.039-.015.058-.027l3.213-2.133c.012-.008.018-.021.029-.029.013-.01.029-.014.041-.026l1.271-1.191c.662-.62.753-1.635.212-2.362zM4.63 20.27a.714.714 0 0 1-.558.052.717.717 0 0 1-.213-1.26l1.314-.632.449 1.313-.992.527zm3.498-1.828-1.548.8-.439-1.283 2.027-1.001-.04 1.484zm15.099-6.62a5.79 5.79 0 0 1-.599 2.559l-4.181-1.899a1.863 1.863 0 0 0-.788-1.388l1.464-4.86c2.378.756 4.105 2.974 4.105 5.588zm-11.789 0c0-3.235 2.644-5.867 5.894-5.867.253 0 .5.021.745.052l-1.432 4.754c-.019-.001-.037-.006-.057-.006-1.033 0-1.873.837-1.873 1.867s.84 1.867 1.873 1.867c.694 0 1.294-.383 1.618-.945l3.862 1.755a5.894 5.894 0 0 1-4.737 2.39c-3.25 0-5.894-2.632-5.894-5.867zm5.956.8c0 .441-.362.8-.806.8s-.806-.359-.806-.8c0-.441.362-.8.806-.8s.806.359.806.8zM4.965 27.646a.608.608 0 0 1-.854.001.592.592 0 0 1 0-.844l.962-.959.851.848-.959.955zm3.214 3.734a.608.608 0 0 1-.855.001.592.592 0 0 1 0-.844l.963-.959.852.848-.96.955zm3.481-3.469-.002.001-1.765 1.76-.852-.848 1.763-1.755.002-.001c.04-.04.065-.088.09-.135.007-.014.02-.026.026-.04.017-.041.019-.085.026-.129.003-.025.014-.047.014-.073 0-.036-.013-.07-.02-.106-.006-.032-.006-.065-.019-.095a.55.55 0 0 0-.091-.138c-.01-.012-.014-.027-.025-.038h-.001l-.001-.002-1.607-1.6c-.017-.017-.039-.024-.058-.038a.507.507 0 0 0-.087-.058.515.515 0 0 0-.093-.033.507.507 0 0 0-.103-.02.5.5 0 0 0-.095.005c-.036.004-.069.009-.104.02s-.063.027-.094.045c-.02.011-.042.015-.061.029L6.73 25.986l-.901-.897 2.399-2.386 4.361 4.289-.928.919zm6.819-7.017c-.015-.002-.03.004-.045.003a.556.556 0 0 0-.3.075.492.492 0 0 0-.083.061c-.013.011-.028.017-.04.029l-4.698 5.146-4.328-4.257 2.833-2.818a.534.534 0 0 0-.379-.911v-.001l-2.219.013.028-1.607 3.104.027a6.947 6.947 0 0 0 4.981 2.101c.437 0 .864-.045 1.279-.123.04.032.079.065.13.085l2.41.96.152.758.178.885-3.003-.427zm4.041.178-.313-1.558 1.446-1.08.947 1.257-2.08 1.381zm3.754-2.831-.838.785-.931-1.236.831-.637a.735.735 0 0 1 .543-.143.718.718 0 0 1 .48.284.713.713 0 0 1-.085.947z"/><path fill="#212121" style="fill:var(--color2, #212121)" d="m16.102 21.044-2.143-2.133a.534.534 0 0 0-.753 0l-2.142 2.133a.537.537 0 0 0 0 .756l2.142 2.133a.536.536 0 0 0 .753 0l2.143-2.133a.535.535 0 0 0 0-.756zm-2.519 1.759-1.387-1.381 1.387-1.381 1.387 1.381-1.387 1.381zM19.664 7.571l-.258 1.036c.071.018 1.738.452 1.738 2.149h1.067c0-2.017-1.666-2.965-2.547-3.185zM22.211 11.822h-1.067v1.067h1.067v-1.067z"/></symbol><symbol id="icon-clock-1" viewBox="0 0 37 37"><path fill="#212121" style="fill:var(--color2, #212121)" d="M33.797 17.801C33.795 9.349 26.942 2.498 18.489 2.5S3.186 9.355 3.188 17.808a15.304 15.304 0 0 0 10.649 14.576.662.662 0 0 0 .529-.065.637.637 0 0 0 .283-.356l3.865-12.25a1.912 1.912 0 1 0-.84-3.635l-5.106-5.107a.637.637 0 0 0-.902.902l5.103 5.109a1.876 1.876 0 0 0 .536 2.309l-3.683 11.673C6.344 28.283 2.618 20.21 5.299 12.932S16.053 1.928 23.331 4.609s11.004 10.754 8.323 18.032a14.042 14.042 0 0 1-7.462 7.973l-.398-1.874a.638.638 0 0 0-1.048-.344l-3.837 3.426a.637.637 0 0 0 .231 1.084l4.899 1.563a.638.638 0 0 0 .819-.74l-.391-1.839a15.255 15.255 0 0 0 9.329-14.089zm-15.305-.637a.638.638 0 1 1 0 1.277.638.638 0 0 1 0-1.277zm2.101 14.864 2.184-1.948.603 2.84-2.787-.892z"/><path fill="#2196f3" style="fill:var(--color3, #2196f3)" d="M17.854 5.685V6.96a.638.638 0 1 0 1.276 0V5.685a.638.638 0 0 0-1.276 0zM6.376 17.164a.638.638 0 0 0 0 1.276h1.275a.638.638 0 1 0 0-1.276H6.376zM30.608 18.439a.638.638 0 1 0 0-1.276h-1.275a.638.638 0 0 0 0 1.276h1.275z"/></symbol><symbol id="icon-diagram-1" viewBox="0 0 37 37"><path fill="#2196f3" style="fill:var(--color3, #2196f3)" d="M17.426 17.465h1.066v4.798h-1.066v-4.797zM21.69 19.597h1.066v2.665H21.69v-2.665zM13.161 21.196h1.066v1.066h-1.066v-1.066zM9.963 20.663h1.066v1.599H9.963v-1.599z"/><path fill="#212121" style="fill:var(--color2, #212121)" d="M4.099 30.791h25.587a1.6 1.6 0 0 0 1.599-1.599V27.06a1.6 1.6 0 0 0-1.599-1.599h-.533V12.168L32.181 9.3a1.608 1.608 0 1 0-.746-.763L29.154 10.7V9.47a1.6 1.6 0 0 0-1.599-1.599H6.233A1.6 1.6 0 0 0 4.634 9.47v15.992h-.533a1.6 1.6 0 0 0-1.599 1.599v2.132a1.6 1.6 0 0 0 1.599 1.599zM32.884 7.337a.533.533 0 1 1 0 1.067.533.533 0 0 1 0-1.067zM5.698 9.469c0-.294.239-.533.533-.533h21.322c.294 0 .533.239.533.533v2.239l-1.066 1.013v-2.186a.533.533 0 0 0-.533-.533H7.297a.533.533 0 0 0-.533.533v13.326c0 .294.239.533.533.533h19.19a.533.533 0 0 0 .533-.533v-9.674l1.066-1.01v12.284H5.698V9.469zm4.798 6.93a1.598 1.598 0 1 0 1.107 2.749l1.853.93a.532.532 0 0 0 .636-.123l3.939-4.431 3.872 2.901a.533.533 0 0 0 .686-.039l3.365-3.188v8.131H7.83v-12.26h18.124v2.66l-3.771 3.572-3.904-2.927a.533.533 0 0 0-.718.072l-3.993 4.493-1.493-.746c.011-.064.018-.129.02-.193a1.6 1.6 0 0 0-1.599-1.599zm.533 1.599a.533.533 0 1 1-1.067 0 .533.533 0 0 1 1.067 0zm3.198 8.528h5.331v.533a.533.533 0 0 1-.533.533h-4.264a.533.533 0 0 1-.533-.533v-.533zm-10.661.534c0-.294.239-.533.533-.533h9.062v.533a1.6 1.6 0 0 0 1.599 1.599h4.264a1.6 1.6 0 0 0 1.599-1.599v-.533h9.062c.294 0 .533.239.533.533v2.132a.533.533 0 0 1-.533.533H4.098a.533.533 0 0 1-.533-.533V27.06z"/></symbol><symbol id="icon-company-1" viewBox="0 0 37 37"><path d="m8.875 3 4.652 4.404-8.634-.005v21.365h22.568v-8.169l4.646 4.399V3.001H8.875zm18.382 17.078L14.068 7.592h13.189v12.486zm-4.095 5.56H8.464V11.269h1.039v13.396h13.659v.973zm-11.227 5.97-.543 1.118-.543-1.118h-.455l.792 1.491v.869h.412v-.869l.791-1.491h-.454zm.682 2.359.191-.549h.914l.193.549h.428l-.893-2.359h-.368l-.891 2.359h.426zm.648-1.858.342.979h-.684l.342-.979zm2.162.922a.54.54 0 0 0-.089.3c0 .199.07.36.209.485.14.123.327.185.561.185s.434-.063.603-.19l.133.157h.457l-.347-.41c.136-.186.204-.424.204-.715h-.342a.942.942 0 0 1-.099.433l-.455-.538.16-.117c.113-.082.195-.164.245-.246s.075-.174.075-.272a.489.489 0 0 0-.165-.375.592.592 0 0 0-.421-.152.63.63 0 0 0-.454.162.578.578 0 0 0-.169.438.59.59 0 0 0 .053.235c.037.081.101.179.193.295-.175.125-.292.234-.352.326zm1.065.522a.6.6 0 0 1-.373.133c-.118 0-.212-.034-.282-.102s-.105-.157-.105-.266c0-.127.065-.239.194-.337l.05-.036.515.608zm-.423-1.046c-.111-.137-.167-.251-.167-.342 0-.079.023-.144.068-.196s.106-.078.183-.078c.071 0 .13.022.177.066.046.043.07.096.07.157a.294.294 0 0 1-.101.229l-.05.041-.18.123zm3.84 1.282c.162-.142.255-.338.279-.59h-.408c-.022.169-.073.289-.154.361s-.202.109-.363.109a.457.457 0 0 1-.402-.201c-.091-.134-.136-.328-.136-.583v-.209c.002-.252.051-.442.146-.572a.48.48 0 0 1 .412-.196c.153 0 .27.038.348.113.08.075.13.197.149.366h.408c-.026-.258-.118-.458-.277-.6s-.368-.212-.629-.212a.95.95 0 0 0-.512.138c-.147.092-.26.223-.339.392s-.118.366-.118.588v.22c.003.217.044.408.121.572s.188.291.331.381a.924.924 0 0 0 .497.133c.269 0 .485-.07.647-.211zm2.41-.33c.08-.175.12-.378.12-.609v-.131a1.424 1.424 0 0 0-.123-.604.902.902 0 0 0-.855-.538.94.94 0 0 0-.512.141.917.917 0 0 0-.345.404 1.442 1.442 0 0 0-.122.609v.133c.001.226.042.425.123.598s.198.306.347.4c.15.093.321.139.512.139a.942.942 0 0 0 .512-.139.913.913 0 0 0 .344-.402zm-.439-1.334c.099.139.149.34.149.601v.123c0 .266-.049.468-.148.606a.48.48 0 0 1-.418.207.49.49 0 0 1-.421-.212c-.101-.142-.151-.342-.151-.601v-.136c.002-.254.053-.45.152-.588a.487.487 0 0 1 .417-.209c.181 0 .321.07.42.209z"/></symbol><symbol id="icon-company-2" viewBox="0 0 37 37"><path d="M16.736 6.4h-.072c-.11-.007-.22-.009-.33-.012h-.239c-.208 0-.421.005-.632.016a.384.384 0 0 0-.048 0 14.832 14.832 0 0 0-5.517 1.407l-.227.109v11.615l.531-.18c.466-.16.962-.304 1.476-.438a18.007 18.007 0 0 1 4.247-.564v1.526c-.19.001-.374.007-.559.016h-.044a16.936 16.936 0 0 0-3.267.502 16.559 16.559 0 0 0-3.892 1.517V7.017a15.6 15.6 0 0 1 4.083-1.661 15.62 15.62 0 0 1 3.848-.496h.224c.268.007.53.019.775.037a11.12 11.12 0 0 1 1.918.305v1.502a11.89 11.89 0 0 0-1.858-.28l-.038-.003a4.592 4.592 0 0 0-.38-.022zm2.643 1.536c.333.025.678.037 1.027.037a16.485 16.485 0 0 0 4.046-.519 16.703 16.703 0 0 0 3.891-1.518v14.631a15.648 15.648 0 0 1-4.085 1.661c-1.258.323-2.55.49-3.849.495a11.779 11.779 0 0 1-2.92-.344V7.653a12.161 12.161 0 0 0 1.888.283zm7.447.113-.531.179c-.488.164-.981.311-1.476.442-1.441.37-2.922.56-4.41.566-.346 0-.665-.009-.973-.029l-.423-.028v11.949l.364.032c.337.029.685.044 1.035.044a14.086 14.086 0 0 0 3.473-.45 14.572 14.572 0 0 0 2.714-.975l.227-.109V8.051zM9.194 27.005a.776.776 0 0 0-.591-.238.865.865 0 0 0-.341.064.768.768 0 0 0-.436.442.865.865 0 0 0-.061.329v1.99c-.005.14.022.28.078.408a.805.805 0 0 0 .199.267c.08.067.173.115.273.141.097.027.197.041.297.041a.841.841 0 0 0 .824-.837v-.223h-.52v.177a.444.444 0 0 1-.031.177.318.318 0 0 1-.076.112.367.367 0 0 1-.218.076.267.267 0 0 1-.244-.106.473.473 0 0 1-.069-.267v-1.856a.634.634 0 0 1 .064-.297.264.264 0 0 1 .255-.12.279.279 0 0 1 .232.112.42.42 0 0 1 .086.267v.172h.515v-.203a.942.942 0 0 0-.064-.348.814.814 0 0 0-.174-.28zM12.285 26.982a.93.93 0 0 0-.592-.219.895.895 0 0 0-.586.219.823.823 0 0 0-.202.279.947.947 0 0 0-.076.386v1.909a.907.907 0 0 0 .076.391.769.769 0 0 0 .202.267c.08.074.173.131.275.168a.895.895 0 0 0 .902-.168.8.8 0 0 0 .196-.267.937.937 0 0 0 .076-.391v-1.909a.918.918 0 0 0-.076-.386.865.865 0 0 0-.196-.279zm-.243 2.574a.349.349 0 0 1-.104.276.379.379 0 0 1-.49 0 .349.349 0 0 1-.104-.276v-1.909a.349.349 0 0 1 .104-.276.379.379 0 0 1 .49 0 .349.349 0 0 1 .104.276v1.909zM16.344 30.408v-3.614h-.5l-.657 1.913h-.009l-.662-1.913h-.495v3.614h.516V28.21h.009l.506 1.554h.257l.51-1.554h.009v2.198h.516zM19.277 27.048a.718.718 0 0 0-.292-.197 1.158 1.158 0 0 0-.374-.056h-.767v3.614h.515v-1.411h.265a.941.941 0 0 0 .464-.099.848.848 0 0 0 .401-.591c.02-.136.03-.273.028-.411a2.078 2.078 0 0 0-.05-.516.768.768 0 0 0-.19-.332zm-.265 1.102a.455.455 0 0 1-.048.188.287.287 0 0 1-.133.127.519.519 0 0 1-.243.045h-.235v-1.229h.265c.08-.004.16.012.232.045a.294.294 0 0 1 .121.133.516.516 0 0 1 .045.201v.24c0 .084.005.171 0 .248h-.005zM21.716 26.794h-.422l-.796 3.614h.515l.151-.776h.702l.151.776h.515l-.816-3.614zm-.475 2.346.253-1.31h.009l.252 1.31h-.515zM25.043 28.971h-.009l-.778-2.177h-.495v3.614h.515v-2.173h.011l.787 2.173h.484v-3.614h-.515v2.177zM28.19 26.794l-.414 1.437h-.011l-.414-1.437h-.545l.707 2.086v1.527h.515V28.88l.707-2.086h-.545zM7.758 31.428h.248v.696h.168v-.696h.247v-.143h-.664v.143zM9.844 31.286l-.325.839h.179l.069-.191h.334l.072.191h.183l-.333-.839h-.179zm-.026.507.114-.311.114.311h-.228zM11.907 31.815h.194v.108a.329.329 0 0 1-.199.071.21.21 0 0 1-.178-.08.355.355 0 0 1-.062-.219c0-.187.081-.28.242-.28.042-.004.085.007.119.031s.06.061.07.102l.166-.032c-.036-.164-.154-.247-.356-.247a.421.421 0 0 0-.293.108.416.416 0 0 0-.121.323.458.458 0 0 0 .107.315.408.408 0 0 0 .319.122.505.505 0 0 0 .356-.133v-.331h-.364v.141zM14.013 31.286h-.17v.839h.588v-.143h-.418v-.696zM15.794 31.286h-.17v.839h.17v-.839zM17.535 31.846l-.344-.56h-.165v.839h.158v-.548l.337.548h.169v-.839h-.155v.56zM19.109 31.755h.418v-.143h-.418v-.184h.45v-.143h-.62v.839h.637v-.143h-.467v-.227zM22.925 31.617h-.33v-.331h-.169v.839h.169v-.367h.33v.367h.169v-.839h-.169v.331zM24.508 31.755h.419v-.143h-.419v-.184h.451v-.143h-.62v.839h.636v-.143h-.467v-.227zM26.656 31.755c.146-.023.22-.1.22-.233a.2.2 0 0 0-.083-.187.474.474 0 0 0-.245-.049h-.356v.839h.169v-.351h.033a.223.223 0 0 1 .105.019.175.175 0 0 1 .06.061l.183.267h.202l-.102-.164a.578.578 0 0 0-.186-.201zm-.17-.116h-.125v-.211h.133a.43.43 0 0 1 .171.02c.012.011.022.024.028.039s.009.031.009.048c-.001.016-.005.032-.013.047s-.019.027-.032.037a.47.47 0 0 1-.171.02zM28.275 31.755h.418v-.143h-.418v-.184h.451v-.143h-.621v.839h.637v-.143h-.467v-.227z"/></symbol><symbol id="icon-company-3" viewBox="0 0 37 37"><path d="M10.498 29.066c.008 0 .017.002.025.005s.015.007.02.013l.116.111a.955.955 0 0 1-.327.211 1.299 1.299 0 0 1-.464.076 1.213 1.213 0 0 1-.436-.071.942.942 0 0 1-.329-.2.878.878 0 0 1-.212-.308 1.02 1.02 0 0 1-.074-.396.91.91 0 0 1 .305-.705 1.06 1.06 0 0 1 .349-.201c.143-.048.296-.072.449-.071.143-.003.285.019.417.064.115.043.221.104.313.178l-.097.119a.085.085 0 0 1-.025.021.065.065 0 0 1-.039.009.086.086 0 0 1-.042-.013l-.052-.032-.073-.04a.818.818 0 0 0-.229-.071 1.11 1.11 0 0 0-.173-.013.952.952 0 0 0-.323.053.683.683 0 0 0-.417.387.81.81 0 0 0-.06.313.795.795 0 0 0 .06.318.68.68 0 0 0 .402.383.867.867 0 0 0 .3.05c.059.001.119-.003.177-.01a.69.69 0 0 0 .384-.163.09.09 0 0 1 .055-.02zM13.857 28.507a.959.959 0 0 1-.079.393c-.047.114-.122.218-.219.305s-.214.155-.344.2a1.42 1.42 0 0 1-.884 0 1.027 1.027 0 0 1-.342-.201.904.904 0 0 1-.221-.308 1.022 1.022 0 0 1 0-.787.94.94 0 0 1 .221-.31c.097-.084.214-.15.342-.193.284-.096.6-.096.884 0 .129.046.246.114.343.201a.914.914 0 0 1 .299.699zm-.305 0a.84.84 0 0 0-.055-.316.653.653 0 0 0-.402-.385 1.025 1.025 0 0 0-.643 0 .683.683 0 0 0-.246.149.63.63 0 0 0-.157.236.927.927 0 0 0 0 .632.643.643 0 0 0 .403.384c.207.067.436.067.643 0a.68.68 0 0 0 .246-.148.662.662 0 0 0 .156-.236.82.82 0 0 0 .055-.316zM16.149 28.838l.031.071.033-.071a.802.802 0 0 1 .038-.07l.743-1.174c.015-.02.028-.033.042-.037a.207.207 0 0 1 .061-.006h.22v1.909h-.26V27.997a.726.726 0 0 1 0-.066l-.747 1.19c-.009.018-.025.033-.044.043s-.041.016-.064.016h-.042c-.023 0-.045-.005-.064-.016s-.034-.026-.044-.044l-.769-1.198v1.533h-.252V27.55h.22a.207.207 0 0 1 .061.006.087.087 0 0 1 .041.037l.759 1.175a.418.418 0 0 1 .038.068zM18.945 28.743v.715h-.291v-1.906h.649c.122-.002.245.012.362.042a.724.724 0 0 1 .256.119.492.492 0 0 1 .145.187.576.576 0 0 1 .049.244.54.54 0 0 1-.211.435.752.752 0 0 1-.257.126 1.25 1.25 0 0 1-.35.044l-.352-.005zm0-.204h.352a.808.808 0 0 0 .225-.029.51.51 0 0 0 .163-.082.358.358 0 0 0 .134-.286c.003-.053-.007-.106-.029-.155s-.057-.094-.102-.13a.624.624 0 0 0-.391-.102h-.352v.786zM22.854 29.461h-.23a.109.109 0 0 1-.064-.018.133.133 0 0 1-.038-.044l-.198-.461h-.993l-.205.461a.107.107 0 0 1-.101.062h-.23l.872-1.909h.302l.884 1.909zm-1.44-.709h.82l-.346-.777a1.276 1.276 0 0 1-.065-.179l-.033.1a.98.98 0 0 1-.032.081l-.343.776zM24.11 27.561c.017.008.032.02.044.034l1.272 1.439V27.552h.26v1.909h-.145a.136.136 0 0 1-.06-.011.165.165 0 0 1-.047-.035l-1.271-1.438a.726.726 0 0 1 0 .066v1.419h-.26v-1.909h.154a.15.15 0 0 1 .052.009zM27.83 28.702v.758h-.291v-.758l-.804-1.15h.26a.114.114 0 0 1 .063.016.159.159 0 0 1 .039.043l.503.742a.717.717 0 0 1 .088.169l.038-.082a.745.745 0 0 1 .049-.087l.496-.747a.18.18 0 0 1 .038-.04.098.098 0 0 1 .063-.019h.263l-.806 1.155zM16.005 24.348c.127.014.254.025.384.035 1.962-.763 3.622-2.011 4.772-3.588s1.74-3.415 1.695-5.282l-2.162-1.879c.44 1.988.234 4.043-.594 5.935s-2.246 3.547-4.094 4.779z"/><path d="m15.233 24.261.058.01c1.975-1.228 3.481-2.942 4.323-4.921s.981-4.133.399-6.181l-3.08-2.676c1.246 2.2 1.747 4.661 1.446 7.098s-1.393 4.75-3.147 6.67zM25.677 17.719c-.523 2.052-1.794 3.902-3.624 5.276-.534.404-1.111.763-1.722 1.074 1.49-.38 2.859-1.053 4.003-1.966s2.03-2.042 2.592-3.3l-1.249-1.084z"/><path d="m25.187 17.417-1.778-1.545c-.034 1.762-.61 3.483-1.669 4.986s-2.562 2.731-4.352 3.559h.009c.399 0 .798-.021 1.194-.062 1.673-.593 3.151-1.537 4.303-2.748s1.94-2.65 2.295-4.189zM15.49 9.364l-2.122-1.846c-1.897.637-3.528 1.756-4.68 3.212s-1.772 3.179-1.778 4.946c.007 1.952.763 3.846 2.149 5.383s3.322 2.628 5.501 3.101c1.946-2.06 3.085-4.605 3.252-7.266s-.647-5.299-2.323-7.53zM30.089 17.133c-.008-2.316-1.07-4.535-2.955-6.173s-4.439-2.561-7.105-2.567a11.3 11.3 0 0 0-3.602.582l12.99 11.286a7.647 7.647 0 0 0 .672-3.128z"/></symbol><symbol id="icon-company-4" viewBox="0 0 38 37"><path d="M9.005 14.866h-.001c-1.102 0-1.995.794-1.995 1.773v.001c0 .979.893 1.773 1.995 1.773h.001c1.102 0 1.995-.794 1.995-1.773v-.001c0-.979-.893-1.773-1.995-1.773zM23.731 14.299c-.003-1.36-.612-2.664-1.694-3.625s-2.549-1.504-4.079-1.507c-1.531.003-2.998.544-4.081 1.506s-1.692 2.266-1.695 3.626v7.5s11.548-1.143 11.55-7.499v-.001zM2.964 24.261c.003.946.427 1.853 1.18 2.523s1.773 1.047 2.838 1.049c1.065-.003 2.085-.38 2.837-1.049s1.177-1.576 1.18-2.522v-5.219s-8.036.796-8.036 5.218zm4.018.935c-.208 0-.412-.055-.585-.158s-.308-.249-.388-.42c-.08-.171-.1-.359-.06-.54s.141-.348.288-.479.335-.22.539-.256c.204-.036.416-.018.608.053s.357.191.472.344.177.334.177.519c0 .123-.026.245-.079.359s-.13.217-.228.305c-.098.087-.214.156-.342.204s-.265.072-.404.072v-.004zM15.103 24.681h-.775v.801h-.404v-1.96H15.2v.327h-.872v.506h.775v.326zm1.941-.135c0 .193-.034.362-.102.508a.768.768 0 0 1-.729.455c-.162 0-.307-.039-.435-.117s-.226-.189-.296-.334a1.153 1.153 0 0 1-.106-.501v-.097c0-.193.035-.363.104-.509a.775.775 0 0 1 .731-.456.77.77 0 0 1 .73.456c.07.146.105.315.105.507v.088zm-.409-.088c0-.206-.037-.362-.11-.468s-.179-.16-.315-.16-.24.053-.314.159-.111.259-.112.463v.096c0 .2.037.355.11.466s.179.166.318.166c.136 0 .24-.053.312-.159s.109-.262.11-.466v-.096zm1.719.51c0-.076-.027-.135-.081-.175s-.151-.084-.291-.129a2.135 2.135 0 0 1-.333-.135c-.223-.12-.334-.282-.334-.486 0-.106.03-.2.089-.283s.146-.148.257-.195c.112-.047.238-.07.377-.07s.265.026.374.077a.565.565 0 0 1 .346.529h-.404c0-.09-.028-.159-.085-.209s-.136-.075-.238-.075c-.099 0-.175.021-.23.063s-.082.096-.082.164c0 .064.032.117.096.16s.159.084.284.121c.23.069.397.155.502.257s.157.23.157.382c0 .17-.064.303-.193.4s-.301.144-.518.144c-.151 0-.288-.027-.412-.082s-.219-.131-.284-.227a.58.58 0 0 1-.097-.334h.405c0 .216.129.324.388.324.096 0 .171-.019.225-.058s.081-.094.081-.164zm2.155-1.119h-.6v1.633h-.404v-1.633h-.592v-.327h1.597v.327zm1.411.784h-.775v.525h.91v.324h-1.314v-1.96h1.311v.327h-.907v.467h.775v.316zm1.097.132h-.322v.718h-.404v-1.96h.728c.232 0 .41.052.536.155s.188.249.188.437c0 .134-.029.245-.087.335s-.145.16-.262.213l.424.801v.019h-.433l-.367-.718zm-.322-.328h.326c.101 0 .18-.026.236-.077.056-.052.083-.123.083-.214s-.026-.165-.079-.218-.132-.079-.241-.079h-.324v.588zm2.447.354v.691h-.404v-1.96h.765c.147 0 .276.027.388.081s.198.131.258.23.09.211.09.338c0 .192-.066.344-.198.455s-.313.166-.545.166h-.354zm0-.327h.361c.107 0 .188-.025.244-.075s.085-.122.085-.215c0-.096-.028-.174-.085-.233s-.135-.09-.234-.092h-.37v.615zm2.555.169h-.775v.525h.91v.324h-1.314v-1.96h1.311v.327h-.907v.467h.775v.316zm1.874-.784h-.6v1.633h-.404v-1.633h-.592v-.327h1.597v.327zm1.411.784h-.775v.525h.91v.324h-1.314v-1.96h1.311v.327h-.907v.467h.775v.316zm1.097.132h-.322v.718h-.404v-1.96h.728c.232 0 .41.052.536.155s.189.249.189.437c0 .134-.029.245-.087.335s-.145.16-.262.213l.424.801v.019h-.433l-.367-.718zm-.322-.328h.326c.101 0 .18-.026.236-.077.056-.052.084-.123.084-.214s-.026-.165-.079-.218-.132-.079-.241-.079h-.324v.588zm2.374.531c0-.076-.027-.135-.081-.175s-.151-.084-.291-.129a2.077 2.077 0 0 1-.332-.135c-.223-.12-.334-.282-.334-.486 0-.106.03-.2.089-.283s.146-.148.257-.195c.112-.047.238-.07.377-.07s.265.026.374.077a.565.565 0 0 1 .346.529h-.404c0-.09-.028-.159-.085-.209s-.136-.075-.238-.075c-.099 0-.175.021-.23.063s-.082.096-.082.164c0 .064.032.117.096.16s.159.084.284.121c.23.069.397.155.502.257s.157.23.157.382c0 .17-.064.303-.192.4s-.301.144-.518.144c-.151 0-.288-.027-.412-.082s-.218-.131-.284-.227a.58.58 0 0 1-.097-.334h.405c0 .216.129.324.388.324.096 0 .171-.019.225-.058s.081-.094.081-.164z"/></symbol><symbol id="icon-company-5" viewBox="0 0 40 37"><path d="M5.61 26.634c.13.147.199.332.196.521.007.123-.017.247-.07.361s-.132.216-.233.297c-.252.175-.565.26-.881.24H3.073v-3.302H4.59c.299-.018.596.059.84.219.098.075.176.17.227.277s.074.224.068.341a.725.725 0 0 1-.176.505.839.839 0 0 1-.462.258.897.897 0 0 1 .523.282zm-1.817-.498h.648a.653.653 0 0 0 .412-.11c.049-.04.087-.09.111-.146s.034-.116.028-.176c.005-.06-.005-.12-.029-.175s-.061-.106-.108-.147a.665.665 0 0 0-.425-.111h-.638v.866zm1.124 1.266c.052-.041.093-.093.12-.151s.038-.121.034-.184c.004-.064-.008-.127-.035-.186s-.069-.111-.122-.153a.714.714 0 0 0-.44-.119h-.68v.908h.689a.732.732 0 0 0 .435-.114zM8.71 28.054l-.844-1.291h-.317v1.291h-.726v-3.302h1.374c.346-.022.689.078.957.281.192.179.308.415.327.666s-.061.499-.224.7c-.17.178-.401.296-.655.336l.899 1.32h-.789zm-1.161-1.741h.594c.412 0 .618-.167.618-.5a.458.458 0 0 0-.151-.371.687.687 0 0 0-.467-.134h-.601l.007 1.005zM12.678 27.389h-1.446l-.255.665h-.761l1.328-3.265h.823l1.323 3.265h-.761l-.25-.665zm-.194-.5-.529-1.394-.529 1.394h1.057zM17.645 28.054h-.721l-1.616-2.245v2.245h-.719v-3.302h.719l1.616 2.258v-2.258h.721v3.302zM21.757 27.263a1.501 1.501 0 0 1-.652.582 2.282 2.282 0 0 1-1.013.208h-1.283v-3.302h1.283c.351-.008.698.061 1.013.203.276.127.503.328.652.576a1.78 1.78 0 0 1 0 1.732zm-.825-.079c.206-.219.319-.499.319-.788s-.113-.569-.319-.788a1.326 1.326 0 0 0-.902-.281h-.5v2.137h.5c.329.019.654-.082.902-.281zM13.129 6.384s9.301 3.215 9.103 7.867v7.869s-9.294-3.217-9.1-7.869l-.004-7.867zM30.518 20.279a13.494 13.494 0 0 1 5.909-1.994v-2.463c-2.444.862-4.517 2.426-5.909 4.457z"/><path d="M29.463 21.021c1.438-2.651 3.93-4.696 6.964-5.715V8.208s-13.245 4.58-12.965 11.205v11.203s.59-.205 1.519-.589c0-.358 0-.719.042-1.082.274-3.076 1.871-5.926 4.44-7.924z"/><path d="M28.203 25.183c.07-.777.225-1.546.463-2.294-1.599 1.725-2.568 3.866-2.77 6.122-.019.213-.03.426-.035.645a40.466 40.466 0 0 0 2.548-1.229 10.624 10.624 0 0 1-.206-3.244zM28.73 25.223a10.17 10.17 0 0 0 .164 2.938c3.619-1.983 7.685-5.046 7.528-8.748v-.323c-2.585.265-5.004 1.3-6.885 2.946a10.29 10.29 0 0 0-.807 3.188z"/></symbol><symbol id="icon-company-6" viewBox="0 0 37 37"><path d="M18.68 18.049a1.001 1.001 0 0 1-.206-.678v-.984c0-.302.068-.531.205-.687s.372-.235.705-.234c.313 0 .535.067.666.2.143.17.213.378.197.588v.231h-.56v-.234a1.171 1.171 0 0 0-.016-.229.22.22 0 0 0-.08-.136.323.323 0 0 0-.203-.053.34.34 0 0 0-.213.056.264.264 0 0 0-.093.15 1.17 1.17 0 0 0-.022.243v1.194a.608.608 0 0 0 .072.335c.028.035.066.063.112.081s.095.024.145.019a.302.302 0 0 0 .198-.054.241.241 0 0 0 .084-.145c.013-.079.019-.159.017-.239v-.242h.56v.221a.894.894 0 0 1-.194.618c-.129.146-.348.219-.67.219s-.566-.078-.704-.24zM21.011 18.059c-.141-.153-.212-.376-.212-.671v-1.035c0-.292.071-.513.212-.663s.378-.225.709-.224c.329 0 .565.075.706.224s.213.371.213.663v1.035c0 .292-.072.516-.216.67s-.378.231-.704.231-.567-.078-.709-.23zm.97-.248a.57.57 0 0 0 .067-.306v-1.267a.566.566 0 0 0-.066-.3c-.028-.036-.068-.065-.114-.083s-.098-.024-.148-.018c-.05-.006-.101 0-.148.018s-.086.046-.115.082a.549.549 0 0 0-.067.3v1.273a.567.567 0 0 0 .067.306.363.363 0 0 0 .262.103.363.363 0 0 0 .262-.103v-.006zM23.313 15.496h.603l.453 1.909.464-1.909h.587l.059 2.756h-.433L25 16.337l-.448 1.915h-.348l-.464-1.922-.043 1.922h-.438l.055-2.756zM26.154 15.496h.939c.541 0 .811.261.811.782 0 .5-.285.749-.854.748h-.32v1.225h-.579l.003-2.756zm.802 1.177c.057.006.115.002.17-.013s.106-.04.148-.074a.45.45 0 0 0 .084-.311.846.846 0 0 0-.028-.25c-.008-.027-.023-.053-.043-.076s-.045-.041-.073-.056a.608.608 0 0 0-.258-.044h-.225v.824h.225zM28.74 15.496h.622l.639 2.756h-.54l-.126-.635h-.555l-.13.635h-.548l.639-2.756zm.532 1.801-.217-1.157-.217 1.157h.433zM30.517 15.496h.406l.777 1.572v-1.572h.481v2.756h-.386l-.781-1.641v1.641h-.497l.001-2.756zM33.306 17.201 32.66 15.5h.543l.394 1.093.37-1.093h.532l-.638 1.701v1.051h-.556v-1.051zM19.575 19.456v.144h-.473v1.12h-.198V19.6h-.475v-.144h1.146zM21.057 20.72h-.153a.064.064 0 0 1-.043-.012.064.064 0 0 1-.025-.029l-.137-.3h-.656l-.137.3a.088.088 0 0 1-.021.034.07.07 0 0 1-.043.012h-.153l.579-1.264h.202l.587 1.259zm-.959-.469h.547l-.232-.514a1.06 1.06 0 0 1-.043-.119l-.022.067-.021.053-.23.513zM22.057 20.596a.99.99 0 0 0 .109 0 .75.75 0 0 0 .177-.038l.078-.031v-.284h-.232c-.006 0-.011 0-.017-.002s-.01-.004-.014-.008c-.004-.003-.007-.006-.009-.01s-.003-.008-.003-.013v-.097h.45v.485a.849.849 0 0 1-.245.103 1 1 0 0 1-.145.026 1.911 1.911 0 0 1-.169.008.872.872 0 0 1-.292-.047.641.641 0 0 1-.382-.332.615.615 0 0 1-.053-.262.668.668 0 0 1 .052-.264c.033-.075.084-.143.15-.2s.145-.101.232-.131a.981.981 0 0 1 .311-.047c.054 0 .108.004.161.011a.813.813 0 0 1 .254.082c.035.02.069.042.101.066l-.056.078c-.004.007-.011.013-.019.017s-.017.007-.026.007a.075.075 0 0 1-.036-.01.822.822 0 0 1-.057-.03.73.73 0 0 0-.332-.073.677.677 0 0 0-.224.035.442.442 0 0 0-.278.257.588.588 0 0 0 0 .421.486.486 0 0 0 .285.259c.074.022.152.03.229.025zM23.904 20.576h.633v.144h-.826v-1.264h.198l-.005 1.12zM25.195 20.72h-.198v-1.264h.198v1.264zM25.933 19.462a.1.1 0 0 1 .03.023l.847.953a.338.338 0 0 1 0-.045V19.451h.173v1.269h-.1a.089.089 0 0 1-.043-.007.092.092 0 0 1-.031-.024l-.846-.952v.983h-.166v-1.264h.103c.011 0 .022.002.033.006zM28.442 19.456v.139h-.702v.417h.569v.134h-.569v.431h.702v.139h-.906v-1.261h.906zM7.673 11.651l8.801 2.157v7.56l-8.801-2.156v-7.561zm-.564-.644v8.572l9.928 2.435v-8.572l-9.928-2.435z"/><path d="M12.43 25.993 2.5 23.557v-8.572l9.93 2.435v8.572zM7.273 11.554l8.686 2.13-3.694 3.19-8.687-2.131 3.695-3.189zm-.164-.547-4.608 3.978 9.93 2.435 4.607-3.978-9.928-2.435zM12.988 25.511l4.048-3.496-4.048-.994v4.49z"/></symbol><symbol id="icon-instagram" viewBox="0 0 37 37"><path d="M34.469 11.908c-.075-1.7-.35-2.869-.744-3.882a7.806 7.806 0 0 0-1.851-2.838 7.867 7.867 0 0 0-2.832-1.844c-1.019-.394-2.182-.669-3.882-.744-1.713-.081-2.257-.1-6.601-.1s-4.888.019-6.595.094c-1.7.075-2.869.35-3.882.744a7.803 7.803 0 0 0-2.838 1.85A7.867 7.867 0 0 0 3.4 8.02c-.394 1.019-.669 2.182-.744 3.882-.081 1.713-.1 2.257-.1 6.601s.019 4.888.094 6.595c.075 1.7.35 2.869.744 3.882a7.895 7.895 0 0 0 1.85 2.838 7.867 7.867 0 0 0 2.832 1.844c1.019.394 2.182.669 3.882.744 1.706.075 2.25.094 6.595.094s4.888-.019 6.595-.094c1.7-.075 2.869-.35 3.882-.744a8.184 8.184 0 0 0 4.682-4.682c.394-1.019.669-2.182.744-3.882.075-1.707.094-2.251.094-6.595s-.006-4.888-.081-6.595zm-2.882 13.065c-.069 1.563-.331 2.407-.55 2.969a5.31 5.31 0 0 1-3.038 3.038c-.563.219-1.413.481-2.969.55-1.688.075-2.194.094-6.464.094s-4.782-.019-6.464-.094c-1.563-.069-2.407-.331-2.969-.55a4.926 4.926 0 0 1-1.838-1.194 4.974 4.974 0 0 1-1.194-1.838c-.219-.563-.481-1.413-.55-2.969-.075-1.688-.094-2.194-.094-6.464s.019-4.782.094-6.464c.069-1.563.331-2.407.55-2.969a4.868 4.868 0 0 1 1.2-1.838A4.974 4.974 0 0 1 9.139 6.05c.563-.219 1.413-.481 2.969-.55 1.688-.075 2.194-.094 6.464-.094 4.276 0 4.782.019 6.464.094 1.563.069 2.407.331 2.969.55a4.914 4.914 0 0 1 1.838 1.194 4.974 4.974 0 0 1 1.194 1.838c.219.563.481 1.413.55 2.969.075 1.688.094 2.194.094 6.464s-.019 4.77-.094 6.458z"/><path d="M18.559 10.283c-4.538 0-8.22 3.682-8.22 8.22s3.682 8.22 8.22 8.22c4.539 0 8.22-3.682 8.22-8.22s-3.682-8.22-8.22-8.22zm0 13.552a5.333 5.333 0 0 1 0-10.664 5.333 5.333 0 0 1 0 10.664zM29.024 9.958a1.919 1.919 0 1 1-3.838 0 1.919 1.919 0 0 1 3.838 0z"/></symbol><symbol id="icon-twitter" viewBox="0 0 37 37"><path d="M34.5 8.578c-1.19.522-2.458.868-3.78 1.036a6.523 6.523 0 0 0 2.886-3.626 13.11 13.11 0 0 1-4.16 1.588A6.574 6.574 0 0 0 24.654 5.5c-3.632 0-6.556 2.948-6.556 6.562 0 .52.044 1.02.152 1.496-5.454-.266-10.28-2.88-13.522-6.862a6.605 6.605 0 0 0-.898 3.316 6.57 6.57 0 0 0 2.914 5.452 6.479 6.479 0 0 1-2.964-.808v.072c0 3.188 2.274 5.836 5.256 6.446a6.548 6.548 0 0 1-1.72.216 5.8 5.8 0 0 1-1.242-.112c.85 2.598 3.262 4.508 6.13 4.57a13.182 13.182 0 0 1-8.134 2.798c-.538 0-1.054-.024-1.57-.09A18.469 18.469 0 0 0 12.564 31.5c12.072 0 18.672-10 18.672-18.668 0-.29-.01-.57-.024-.848A13.087 13.087 0 0 0 34.5 8.578z"/></symbol><symbol id="icon-facebook" viewBox="0 0 37 37"><path d="M23.829 7.813h2.921V2.725c-.504-.069-2.237-.225-4.256-.225-4.212 0-7.097 2.649-7.097 7.519V14.5h-4.648v5.688h4.648V34.5h5.699V20.189h4.46l.708-5.688h-5.169v-3.919c.001-1.644.444-2.769 2.735-2.769z"/></symbol><symbol id="icon-linkedin" viewBox="0 0 37 37"><path d="M34.492 34.5v-.001h.008V22.763c0-5.741-1.236-10.164-7.948-10.164-3.227 0-5.392 1.771-6.276 3.449h-.093v-2.913h-6.364v21.364h6.627V23.92c0-2.785.528-5.479 3.977-5.479 3.399 0 3.449 3.179 3.449 5.657v10.401h6.62zM3.028 13.136h6.635V34.5H3.028V13.136zM6.343 2.5C4.222 2.5 2.5 4.221 2.5 6.343s1.721 3.879 3.843 3.879c2.121 0 3.843-1.757 3.843-3.879A3.846 3.846 0 0 0 6.343 2.5z"/></symbol><symbol id="icon-smartphone" viewBox="0 0 23 37"><path d="M19.5 2.5h-14c-1.654 0-3 1.346-3 3v26c0 1.654 1.346 3 3 3h14c1.654 0 3-1.346 3-3v-26c0-1.654-1.346-3-3-3zm-14 2h14a1 1 0 0 1 1 1v21h-16v-21a1 1 0 0 1 1-1zm14 28h-14a1 1 0 0 1-1-1v-3h16v3a1 1 0 0 1-1 1z"/><path d="M7.207 29.978c.391.365.391.956 0 1.321s-1.024.365-1.414 0c-.391-.365-.391-.956 0-1.321s1.024-.365 1.414 0z"/></symbol><symbol id="icon-envelope" viewBox="0 0 50 37"><path d="M41.167 2.5H6.5c-2.206 0-4 1.794-4 4v24c0 2.206 1.794 4 4 4h34.667c2.206 0 4-1.794 4-4v-24c0-2.206-1.794-4-4-4zm0 2.667c.181 0 .353.038.511.103L23.834 20.736 5.99 5.27a1.32 1.32 0 0 1 .511-.103h34.667zm0 26.666H6.5A1.334 1.334 0 0 1 5.167 30.5V8.087L22.96 23.508a1.335 1.335 0 0 0 1.748 0L42.501 8.087V30.5c0 .736-.598 1.333-1.333 1.333z"/></symbol><symbol id="icon-close" viewBox="0 0 32 32"><path d="M32 3.223 28.777 0 16 12.777 3.223 0 0 3.223 12.777 16 0 28.777 3.223 32 16 19.223 28.777 32 32 28.777 19.223 16 32 3.223z"/></symbol><symbol id="icon-menu" viewBox="0 0 32 32"><path d="M2 6h28v6H2zm0 8h28v6H2zm0 8h28v6H2z"/></symbol></defs></svg>